<svg width="24" height="24" viewBox="0 0 24 24" fill="none" xmlns="http://www.w3.org/2000/svg">
    <path d="M11.375 12.625V17C11.375 17.1771 11.435 17.3255 11.555 17.4453C11.675 17.5651 11.8236 17.625 12.0009 17.625C12.1782 17.625 12.3266 17.5651 12.4459 17.4453C12.5653 17.3255 12.625 17.1771 12.625 17V12.625H17C17.1771 12.625 17.3255 12.565 17.4453 12.445C17.5651 12.325 17.625 12.1764 17.625 11.9991C17.625 11.8218 17.5651 11.6734 17.4453 11.5541C17.3255 11.4347 17.1771 11.375 17 11.375H12.625V7C12.625 6.82292 12.565 6.67448 12.445 6.55469C12.325 6.4349 12.1764 6.375 11.9991 6.375C11.8218 6.375 11.6734 6.4349 11.5541 6.55469C11.4347 6.67448 11.375 6.82292 11.375 7V11.375H7C6.82292 11.375 6.67448 11.435 6.55469 11.555C6.4349 11.675 6.375 11.8236 6.375 12.0009C6.375 12.1782 6.4349 12.3266 6.55469 12.4459C6.67448 12.5653 6.82292 12.625 7 12.625H11.375ZM12.0041 23.25C10.4484 23.25 8.98583 22.9548 7.61625 22.3644C6.24687 21.774 5.05562 20.9727 4.0425 19.9606C3.02938 18.9485 2.2274 17.7583 1.63656 16.39C1.04552 15.0219 0.75 13.5599 0.75 12.0041C0.75 10.4484 1.04521 8.98583 1.63562 7.61625C2.22604 6.24687 3.02729 5.05562 4.03937 4.0425C5.05146 3.02937 6.24167 2.2274 7.61 1.63656C8.97812 1.04552 10.4401 0.75 11.9959 0.75C13.5516 0.75 15.0142 1.04521 16.3838 1.63563C17.7531 2.22604 18.9444 3.02729 19.9575 4.03938C20.9706 5.05146 21.7726 6.24167 22.3634 7.61C22.9545 8.97813 23.25 10.4401 23.25 11.9959C23.25 13.5516 22.9548 15.0142 22.3644 16.3837C21.774 17.7531 20.9727 18.9444 19.9606 19.9575C18.9485 20.9706 17.7583 21.7726 16.39 22.3634C15.0219 22.9545 13.5599 23.25 12.0041 23.25ZM12 22C14.7917 22 17.1562 21.0312 19.0938 19.0938C21.0312 17.1562 22 14.7917 22 12C22 9.20833 21.0312 6.84375 19.0938 4.90625C17.1562 2.96875 14.7917 2 12 2C9.20833 2 6.84375 2.96875 4.90625 4.90625C2.96875 6.84375 2 9.20833 2 12C2 14.7917 2.96875 17.1562 4.90625 19.0938C6.84375 21.0312 9.20833 22 12 22Z" fill="#1B1B1B"/>
</svg>
