<svg width="18" height="24" viewBox="0 0 18 24" fill="none" xmlns="http://www.w3.org/2000/svg">
    <path d="M0.875 20.4616C0.697917 20.4616 0.549479 20.4016 0.429688 20.2816C0.309896 20.1616 0.25 20.0129 0.25 19.8356C0.25 19.6583 0.309896 19.51 0.429688 19.3906C0.549479 19.2712 0.697917 19.2116 0.875 19.2116H2.26937V9.30781C2.26937 7.67469 2.78615 6.23833 3.81969 4.99875C4.85344 3.75917 6.16354 2.98719 7.75 2.68281V2C7.75 1.65271 7.87125 1.3576 8.11375 1.11469C8.35625 0.871562 8.65073 0.75 8.99719 0.75C9.34365 0.75 9.63906 0.871562 9.88344 1.11469C10.1278 1.3576 10.25 1.65271 10.25 2V2.68281C11.8365 2.98719 13.1466 3.75917 14.1803 4.99875C15.2139 6.23833 15.7306 7.67469 15.7306 9.30781V19.2116H17.125C17.3021 19.2116 17.4505 19.2716 17.5703 19.3916C17.6901 19.5114 17.75 19.66 17.75 19.8375C17.75 20.0148 17.6901 20.1631 17.5703 20.2825C17.4505 20.4019 17.3021 20.4616 17.125 20.4616H0.875ZM8.99562 23.7306C8.43917 23.7306 7.96427 23.5329 7.57094 23.1375C7.1774 22.7421 6.98063 22.2668 6.98063 21.7116H11.0194C11.0194 22.2709 10.8211 22.7473 10.4247 23.1406C10.0284 23.534 9.55208 23.7306 8.99562 23.7306ZM3.51937 19.2116H14.4806V9.30781C14.4806 7.78844 13.947 6.4951 12.8797 5.42781C11.8124 4.36052 10.5192 3.82688 9 3.82688C7.48083 3.82688 6.1876 4.36052 5.12031 5.42781C4.05302 6.4951 3.51937 7.78844 3.51937 9.30781V19.2116Z" fill="#1B1B1B"/>
</svg>
