<svg width="18" height="19" viewBox="0 0 18 19" fill="none" xmlns="http://www.w3.org/2000/svg">
    <path d="M0.401581 12.7597C0.244498 12.6378 0.163143 12.4779 0.157518 12.28C0.151893 12.0821 0.227623 11.9142 0.384706 11.7765C0.501581 11.6899 0.631373 11.6465 0.774081 11.6465C0.916789 11.6465 1.04658 11.6899 1.16346 11.7765L8.51939 17.4662C8.66356 17.5785 8.82377 17.6347 9.00002 17.6347C9.17627 17.6347 9.33648 17.5785 9.48064 17.4662L16.8366 11.7765C16.9535 11.6899 17.0832 11.6465 17.226 11.6465C17.3687 11.6465 17.4985 11.6899 17.6153 11.7765C17.7724 11.9142 17.8481 12.0821 17.8425 12.28C17.8369 12.4779 17.7555 12.6378 17.5985 12.7597L10.2428 18.4568C9.86471 18.7468 9.45043 18.8918 9.00002 18.8918C8.5496 18.8918 8.13533 18.7468 7.75721 18.4568L0.401581 12.7597ZM7.75721 13.6828L1.81971 9.07435C1.302 8.6706 1.04314 8.14258 1.04314 7.49029C1.04314 6.83799 1.302 6.30997 1.81971 5.90622L7.75721 1.2981C8.13533 1.0081 8.5496 0.863098 9.00002 0.863098C9.45043 0.863098 9.86471 1.0081 10.2428 1.2981L16.1803 5.90622C16.698 6.30997 16.9569 6.83799 16.9569 7.49029C16.9569 8.14258 16.698 8.6706 16.1803 9.07435L10.2428 13.6828C9.86471 13.9728 9.45043 14.1178 9.00002 14.1178C8.5496 14.1178 8.13533 13.9728 7.75721 13.6828ZM9.48064 12.6922L15.3944 8.09122C15.6027 7.93101 15.7069 7.7307 15.7069 7.49029C15.7069 7.24987 15.6027 7.04956 15.3944 6.88935L9.48064 2.28841C9.33648 2.17633 9.17627 2.12029 9.00002 2.12029C8.82377 2.12029 8.66356 2.17633 8.51939 2.28841L2.60564 6.88935C2.39731 7.04956 2.29314 7.24987 2.29314 7.49029C2.29314 7.7307 2.39731 7.93101 2.60564 8.09122L8.51939 12.6922C8.66356 12.8045 8.82377 12.8606 9.00002 12.8606C9.17627 12.8606 9.33648 12.8045 9.48064 12.6922Z" fill="#1B1B1B"/>
</svg>
