<svg width="23" height="26" viewBox="0 0 23 26" fill="none" xmlns="http://www.w3.org/2000/svg">
    <path d="M9.61531 2.21624L1.96875 6.64186L10 11.2837L18.0312 6.64186L10.3847 2.21624C10.2564 2.13624 10.1281 2.09624 10 2.09624C9.87187 2.09624 9.74365 2.13624 9.61531 2.21624ZM0 16.5119V7.48811C0 7.12582 0.0883332 6.79093 0.265 6.48343C0.441667 6.17593 0.689896 5.92822 1.00969 5.7403L8.99031 1.14186C9.16656 1.0377 9.33323 0.966343 9.49031 0.927801C9.6474 0.889468 9.81687 0.8703 9.99875 0.8703C10.1806 0.8703 10.3557 0.889468 10.5241 0.927801C10.6924 0.966343 10.8543 1.0377 11.0097 1.14186L18.9903 5.7403C19.3101 5.92822 19.5583 6.17593 19.735 6.48343C19.9117 6.79093 20 7.12582 20 7.48811V11.1828C20 11.3599 19.94 11.5083 19.82 11.6281C19.7 11.7479 19.5514 11.8078 19.3741 11.8078C19.1968 11.8078 19.0484 11.7479 18.9291 11.6281C18.8097 11.5083 18.75 11.3599 18.75 11.1828V7.65374L10.9784 12.1419C10.6574 12.3229 10.3195 12.4134 9.96469 12.4134C9.6101 12.4134 9.2749 12.3229 8.95906 12.1419L1.25 7.65374V16.5047C1.25 16.633 1.28208 16.7532 1.34625 16.8653C1.41021 16.9776 1.50635 17.0737 1.63469 17.1537L9.20687 21.5625C9.30062 21.6146 9.37615 21.6876 9.43344 21.7816C9.49073 21.8755 9.51937 21.9798 9.51937 22.0944C9.51937 22.3344 9.41917 22.51 9.21875 22.6212C9.01833 22.7327 8.81396 22.73 8.60563 22.6131L1.00969 18.2597C0.689896 18.0718 0.441667 17.8241 0.265 17.5166C0.0883332 17.2091 0 16.8742 0 16.5119ZM17.5 25.4375C16.1073 25.4375 14.9258 24.9523 13.9556 23.9819C12.9852 23.0117 12.5 21.8302 12.5 20.4375C12.5 19.0448 12.9852 17.8633 13.9556 16.8931C14.9258 15.9227 16.1073 15.4375 17.5 15.4375C18.8927 15.4375 20.0742 15.9227 21.0444 16.8931C22.0148 17.8633 22.5 19.0448 22.5 20.4375C22.5 21.8302 22.0148 23.0117 21.0444 23.9819C20.0742 24.9523 18.8927 25.4375 17.5 25.4375ZM17.9806 20.3178V17.3847C17.9806 17.2563 17.9326 17.1442 17.8366 17.0481C17.7403 16.9519 17.6281 16.9037 17.5 16.9037C17.3719 16.9037 17.2597 16.9519 17.1634 17.0481C17.0674 17.1442 17.0194 17.2563 17.0194 17.3847V20.3006C17.0194 20.4281 17.0426 20.5518 17.0891 20.6716C17.1355 20.7911 17.2132 20.9054 17.3222 21.0144L19.2213 22.9134C19.3142 23.0063 19.424 23.0569 19.5506 23.065C19.6771 23.0729 19.7948 23.0224 19.9037 22.9134C20.0127 22.8045 20.0672 22.6907 20.0672 22.5722C20.0672 22.4536 20.0127 22.3398 19.9037 22.2306L17.9806 20.3178Z" fill="#1B1B1B"/>
</svg>
