<svg width="22" height="24" viewBox="0 0 22 24" fill="none" xmlns="http://www.w3.org/2000/svg">
    <path d="M9.69936 23.25C9.40936 23.25 9.15738 23.1547 8.94342 22.9641C8.72946 22.7732 8.59686 22.5352 8.54561 22.25L8.21624 19.6347C7.81728 19.5145 7.38582 19.3253 6.92186 19.0672C6.4579 18.8093 6.06332 18.5329 5.73811 18.2381L3.34373 19.2669C3.07936 19.3837 2.81092 19.3966 2.53842 19.3053C2.26592 19.2139 2.05603 19.0407 1.90873 18.7859L0.559985 16.4641C0.412693 16.2093 0.369464 15.9432 0.430297 15.6659C0.491131 15.3886 0.63613 15.161 0.865297 14.9831L2.95436 13.4206C2.91748 13.1948 2.88707 12.9621 2.86311 12.7225C2.83894 12.4829 2.82686 12.2501 2.82686 12.0241C2.82686 11.8141 2.83894 11.5933 2.86311 11.3619C2.88707 11.1302 2.91748 10.8694 2.95436 10.5794L0.865297 9.01687C0.63613 8.83896 0.495089 8.6074 0.442172 8.32219C0.389464 8.03698 0.436755 7.76688 0.584047 7.51188L1.90873 5.26188C2.05603 5.02313 2.26592 4.85406 2.53842 4.75469C2.81092 4.65531 3.07936 4.66417 3.34373 4.78125L5.71405 5.78594C6.08738 5.4751 6.49124 5.19469 6.92561 4.94469C7.35978 4.69469 7.78196 4.50156 8.19217 4.36531L8.54561 1.75C8.59686 1.46479 8.72946 1.22677 8.94342 1.03594C9.15738 0.845313 9.40936 0.75 9.69936 0.75H12.3006C12.5906 0.75 12.8426 0.845313 13.0565 1.03594C13.2705 1.22677 13.4031 1.46479 13.4544 1.75L13.7837 4.38938C14.2629 4.55771 14.6863 4.75083 15.054 4.96875C15.4218 5.18667 15.8004 5.45906 16.19 5.78594L18.6803 4.78125C18.9447 4.66417 19.2131 4.65531 19.4856 4.75469C19.7581 4.85406 19.968 5.02313 20.1153 5.26188L21.44 7.53594C21.5873 7.79073 21.6305 8.05677 21.5697 8.33406C21.5088 8.61135 21.3638 8.83896 21.1347 9.01687L18.9494 10.6516C19.0183 10.9095 19.0569 11.1462 19.065 11.3619C19.0729 11.5773 19.0769 11.79 19.0769 12C19.0769 12.194 19.0688 12.3986 19.0528 12.6141C19.0368 12.8297 18.9999 13.0905 18.9422 13.3966L21.0553 14.9831C21.2845 15.161 21.4335 15.3886 21.5025 15.6659C21.5712 15.9432 21.532 16.2093 21.3847 16.4641L20.0528 18.7619C19.9055 19.0169 19.6916 19.19 19.4109 19.2812C19.1305 19.3725 18.8581 19.3597 18.5937 19.2428L16.19 18.2141C15.8004 18.5409 15.4085 18.8214 15.0144 19.0553C14.6202 19.2893 14.21 19.4744 13.7837 19.6106L13.4544 22.25C13.4031 22.5352 13.2705 22.7732 13.0565 22.9641C12.8426 23.1547 12.5906 23.25 12.3006 23.25H9.69936ZM9.74999 22H12.1947L12.6562 18.6153C13.286 18.4486 13.8529 18.2199 14.3569 17.9291C14.861 17.6382 15.3743 17.2396 15.8965 16.7331L19.0144 18.0625L20.2572 15.9375L17.5215 13.8822C17.6257 13.5264 17.6947 13.1991 17.7284 12.9003C17.762 12.6014 17.7787 12.3013 17.7787 12C17.7787 11.6827 17.762 11.3826 17.7284 11.0997C17.6947 10.817 17.6257 10.5057 17.5215 10.1659L20.3053 8.0625L19.0625 5.9375L15.8725 7.27406C15.4944 6.85906 14.9972 6.47 14.3809 6.10687C13.7649 5.74396 13.182 5.50323 12.6322 5.38469L12.25 2H9.75717L9.3678 5.36062C8.73801 5.49521 8.15905 5.71198 7.63092 6.01094C7.10301 6.30969 6.5778 6.72031 6.0553 7.24281L2.93748 5.9375L1.69467 8.0625L4.40624 10.0866C4.30207 10.367 4.22915 10.6715 4.18748 11C4.14582 11.3285 4.12498 11.6699 4.12498 12.0241C4.12498 12.3414 4.14582 12.6562 4.18748 12.9688C4.22915 13.2812 4.29405 13.5857 4.38217 13.8822L1.69467 15.9375L2.93748 18.0625L6.03124 16.75C6.52165 17.2452 7.03082 17.6423 7.55874 17.9412C8.08686 18.24 8.68186 18.4727 9.34374 18.6394L9.74999 22ZM10.9662 15.125C11.8381 15.125 12.577 14.8221 13.1828 14.2163C13.7884 13.6106 14.0912 12.8719 14.0912 12C14.0912 11.1281 13.7884 10.3894 13.1828 9.78375C12.577 9.17792 11.8381 8.875 10.9662 8.875C10.0898 8.875 9.34978 9.17792 8.74624 9.78375C8.1429 10.3894 7.84124 11.1281 7.84124 12C7.84124 12.8719 8.1429 13.6106 8.74624 14.2163C9.34978 14.8221 10.0898 15.125 10.9662 15.125Z" fill="#1B1B1B"/>
</svg>
