<svg width="22" height="20" viewBox="0 0 22 20" fill="none" xmlns="http://www.w3.org/2000/svg">
    <path d="M4.80781 16.8047C4.53531 16.8047 4.30698 16.7111 4.12281 16.524C3.93844 16.3367 3.84625 16.1046 3.84625 15.8277V14.5575H18.5338L19.3272 15.3638V3.81038H20.5772C20.8495 3.81038 21.0778 3.90405 21.2622 4.09139C21.4466 4.27852 21.5388 4.51053 21.5388 4.78742V18.2434C21.5388 18.6958 21.3316 19.0101 20.9172 19.1862C20.503 19.3621 20.138 19.2897 19.8222 18.969L17.6925 16.8047H4.80781ZM3.84625 12.0173L1.71656 14.1816C1.40073 14.5023 1.03573 14.5747 0.621563 14.3988C0.207187 14.2227 0 13.9084 0 13.456V0.977045C0 0.700157 0.0921872 0.468146 0.276562 0.281014C0.460937 0.093671 0.689271 0 0.961562 0H15.8656C16.1379 0 16.3663 0.093671 16.5506 0.281014C16.735 0.468146 16.8272 0.700157 16.8272 0.977045V11.0402C16.8272 11.3171 16.735 11.5492 16.5506 11.7366C16.3663 11.9237 16.1379 12.0173 15.8656 12.0173H3.84625ZM15.5772 10.7472V1.27013H1.25V12.506L2.98094 10.7472H15.5772Z" fill="#1B1B1B"/>
</svg>
