<svg width="20" height="24" viewBox="0 0 20 24" fill="none" xmlns="http://www.w3.org/2000/svg">
    <path d="M9.375 21.6419V12.3581L1.25 7.65374V16.5047C1.25 16.633 1.28208 16.7532 1.34625 16.8653C1.41021 16.9776 1.50635 17.0737 1.63469 17.1537L9.375 21.6419ZM10.625 21.6419L18.3653 17.1537C18.4936 17.0737 18.5898 16.9776 18.6537 16.8653C18.7179 16.7532 18.75 16.633 18.75 16.5047V7.65374L10.625 12.3581V21.6419ZM10 11.2837L18.0312 6.64186L10.3847 2.21624C10.2564 2.13624 10.1281 2.09624 10 2.09624C9.87187 2.09624 9.74365 2.13624 9.61531 2.21624L1.96875 6.64186L10 11.2837ZM1.00969 18.2597C0.693854 18.0786 0.446667 17.8326 0.268125 17.5216C0.0893751 17.2107 0 16.8742 0 16.5119V7.48811C0 7.12582 0.0893751 6.78926 0.268125 6.47843C0.446667 6.16738 0.693854 5.92134 1.00969 5.7403L8.99031 1.14186C9.30615 0.960821 9.64271 0.8703 10 0.8703C10.3573 0.8703 10.6939 0.960821 11.0097 1.14186L18.9903 5.7403C19.3061 5.92134 19.5533 6.16738 19.7319 6.47843C19.9106 6.78926 20 7.12582 20 7.48811V16.5119C20 16.8742 19.9106 17.2107 19.7319 17.5216C19.5533 17.8326 19.3061 18.0786 18.9903 18.2597L11.0097 22.8581C10.6939 23.0392 10.3573 23.1297 10 23.1297C9.64271 23.1297 9.30615 23.0392 8.99031 22.8581L1.00969 18.2597Z" fill="#1B1B1B"/>
</svg>
