<?xml version="1.0" encoding="utf-8"?>
<!-- Generator: Adobe Illustrator 23.0.3, SVG Export Plug-In . SVG Version: 6.00 Build 0)  -->
<svg version="1.1" id="Layer_1" xmlns="http://www.w3.org/2000/svg" xmlns:xlink="http://www.w3.org/1999/xlink" x="0px" y="0px"
	 viewBox="0 0 74 29" style="enable-background:new 0 0 74 29;" xml:space="preserve">
<g>
	<path d="M1.2,28.6V8.4h4V4.4h3.9v-4h4.5v4h3.9v3.9h4v20.3h-4.5v-7.9H5.6v7.9H1.2z M5.6,16.3h11.5V8.8h-3.9V4.9H9.6v3.9H5.6V16.3z"
		/>
	<path d="M30.9,28.6v-3.9h-4V4.4h4v-4h12.4v4h4v8.3h-4v3.5h4v8.4h-4v3.9H30.9z M31.3,24.3h11.5v-7.5h-8v-4.3h8V4.9H31.3V24.3z"/>
	<path d="M56.6,28.6v-3.9h-4V4.4h4v-4H69v4h4v8.3h-4.5V4.9H57v19.4h11.5v-8H73v8.4h-4v3.9H56.6z"/>
</g>
</svg>
